<?xml version="1.0" encoding="UTF-8" standalone="no"?>
<!DOCTYPE svg PUBLIC "-//W3C//DTD SVG 1.1//EN"
 "http://www.w3.org/Graphics/SVG/1.1/DTD/svg11.dtd">
<!-- Generated by graphviz version 2.43.0 (0)
 -->
<!-- Title: object_store Pages: 1 -->
<svg width="504pt" height="165pt"
 viewBox="0.00 0.00 504.00 165.33" xmlns="http://www.w3.org/2000/svg" xmlns:xlink="http://www.w3.org/1999/xlink">
<g id="graph0" class="graph" transform="scale(0.35 0.35) rotate(0) translate(4 472)">
<title>object_store</title>
<polygon fill="white" stroke="transparent" points="-4,4 -4,-472 1447.09,-472 1447.09,4 -4,4"/>
<!-- testrados -->
<g id="node1" class="node">
<title>testrados</title>
<ellipse fill="#b2dfee" stroke="#b2dfee" cx="1040.15" cy="-378" rx="54.69" ry="18"/>
<text text-anchor="middle" x="1040.15" y="-374.3" font-family="Serif" font-size="14.00">testrados</text>
</g>
<!-- librados -->
<g id="node2" class="node">
<title>librados</title>
<ellipse fill="#b2dfee" stroke="#b2dfee" cx="1040.15" cy="-306" rx="48.19" ry="18"/>
<text text-anchor="middle" x="1040.15" y="-302.3" font-family="Serif" font-size="14.00">librados</text>
</g>
<!-- testrados&#45;&gt;librados -->
<g id="edge1" class="edge">
<title>testrados&#45;&gt;librados</title>
<path fill="none" stroke="black" d="M1040.15,-359.7C1040.15,-351.98 1040.15,-342.71 1040.15,-334.11"/>
<polygon fill="black" stroke="black" points="1043.65,-334.1 1040.15,-324.1 1036.65,-334.1 1043.65,-334.1"/>
</g>
<!-- objecter -->
<g id="node9" class="node">
<title>objecter</title>
<ellipse fill="#b2dfee" stroke="#b2dfee" cx="509.15" cy="-234" rx="48.99" ry="18"/>
<text text-anchor="middle" x="509.15" y="-230.3" font-family="Serif" font-size="14.00">objecter</text>
</g>
<!-- librados&#45;&gt;objecter -->
<g id="edge8" class="edge">
<title>librados&#45;&gt;objecter</title>
<path fill="none" stroke="black" d="M992.73,-302.42C907.06,-297.15 721.07,-282.94 567.15,-252 562.98,-251.16 558.68,-250.16 554.39,-249.08"/>
<polygon fill="black" stroke="black" points="555.05,-245.63 544.48,-246.41 553.23,-252.39 555.05,-245.63"/>
</g>
<!-- testradospp -->
<g id="node3" class="node">
<title>testradospp</title>
<ellipse fill="#b2dfee" stroke="#b2dfee" cx="1179.15" cy="-378" rx="66.09" ry="18"/>
<text text-anchor="middle" x="1179.15" y="-374.3" font-family="Serif" font-size="14.00">testradospp</text>
</g>
<!-- testradospp&#45;&gt;librados -->
<g id="edge2" class="edge">
<title>testradospp&#45;&gt;librados</title>
<path fill="none" stroke="black" d="M1148.99,-361.81C1127.89,-351.19 1099.58,-336.93 1077.12,-325.62"/>
<polygon fill="black" stroke="black" points="1078.39,-322.34 1067.89,-320.97 1075.24,-328.59 1078.39,-322.34"/>
</g>
<!-- rbd -->
<g id="node4" class="node">
<title>rbd</title>
<ellipse fill="#b2dfee" stroke="#b2dfee" cx="1290.15" cy="-378" rx="27" ry="18"/>
<text text-anchor="middle" x="1290.15" y="-374.3" font-family="Serif" font-size="14.00">rbd</text>
</g>
<!-- rbd&#45;&gt;librados -->
<g id="edge3" class="edge">
<title>rbd&#45;&gt;librados</title>
<path fill="none" stroke="black" d="M1269.5,-366.4C1264.55,-364.09 1259.23,-361.81 1254.15,-360 1200.12,-340.77 1136.03,-325.89 1092.16,-316.86"/>
<polygon fill="black" stroke="black" points="1092.79,-313.42 1082.29,-314.86 1091.4,-320.28 1092.79,-313.42"/>
</g>
<!-- radostool -->
<g id="node5" class="node">
<title>radostool</title>
<ellipse fill="#b2dfee" stroke="#b2dfee" cx="1389.15" cy="-378" rx="53.89" ry="18"/>
<text text-anchor="middle" x="1389.15" y="-374.3" font-family="Serif" font-size="14.00">radostool</text>
</g>
<!-- radostool&#45;&gt;librados -->
<g id="edge4" class="edge">
<title>radostool&#45;&gt;librados</title>
<path fill="none" stroke="black" d="M1349.27,-365.72C1341.63,-363.71 1333.66,-361.71 1326.15,-360 1245.55,-341.69 1151.1,-325.13 1093.46,-315.56"/>
<polygon fill="black" stroke="black" points="1093.93,-312.09 1083.49,-313.92 1092.79,-319 1093.93,-312.09"/>
</g>
<!-- radosgw&#45;admin -->
<g id="node6" class="node">
<title>radosgw&#45;admin</title>
<ellipse fill="#b2dfee" stroke="#b2dfee" cx="811.15" cy="-450" rx="81.79" ry="18"/>
<text text-anchor="middle" x="811.15" y="-446.3" font-family="Serif" font-size="14.00">radosgw&#45;admin</text>
</g>
<!-- radosgw -->
<g id="node7" class="node">
<title>radosgw</title>
<ellipse fill="#b2dfee" stroke="#b2dfee" cx="799.15" cy="-378" rx="50.09" ry="18"/>
<text text-anchor="middle" x="799.15" y="-374.3" font-family="Serif" font-size="14.00">radosgw</text>
</g>
<!-- radosgw&#45;admin&#45;&gt;radosgw -->
<g id="edge5" class="edge">
<title>radosgw&#45;admin&#45;&gt;radosgw</title>
<path fill="none" stroke="black" d="M808.18,-431.7C806.86,-423.98 805.27,-414.71 803.79,-406.11"/>
<polygon fill="black" stroke="black" points="807.22,-405.37 802.08,-396.1 800.32,-406.55 807.22,-405.37"/>
</g>
<!-- radosgw&#45;&gt;librados -->
<g id="edge6" class="edge">
<title>radosgw&#45;&gt;librados</title>
<path fill="none" stroke="black" d="M836.8,-366.06C879.11,-353.78 947.81,-333.82 993.49,-320.55"/>
<polygon fill="black" stroke="black" points="994.52,-323.9 1003.15,-317.75 992.57,-317.17 994.52,-323.9"/>
</g>
<!-- radosacl -->
<g id="node8" class="node">
<title>radosacl</title>
<ellipse fill="#b2dfee" stroke="#b2dfee" cx="917.15" cy="-378" rx="50.09" ry="18"/>
<text text-anchor="middle" x="917.15" y="-374.3" font-family="Serif" font-size="14.00">radosacl</text>
</g>
<!-- radosacl&#45;&gt;librados -->
<g id="edge7" class="edge">
<title>radosacl&#45;&gt;librados</title>
<path fill="none" stroke="black" d="M942.63,-362.5C960.94,-352.08 985.82,-337.92 1005.86,-326.51"/>
<polygon fill="black" stroke="black" points="1007.73,-329.47 1014.69,-321.49 1004.27,-323.39 1007.73,-329.47"/>
</g>
<!-- OSDMap -->
<g id="node15" class="node">
<title>OSDMap</title>
<ellipse fill="#b2dfee" stroke="#b2dfee" cx="470.15" cy="-162" rx="51.99" ry="18"/>
<text text-anchor="middle" x="470.15" y="-158.3" font-family="Serif" font-size="14.00">OSDMap</text>
</g>
<!-- objecter&#45;&gt;OSDMap -->
<g id="edge15" class="edge">
<title>objecter&#45;&gt;OSDMap</title>
<path fill="none" stroke="black" d="M499.71,-216.05C495.11,-207.8 489.48,-197.7 484.38,-188.54"/>
<polygon fill="black" stroke="black" points="487.43,-186.82 479.5,-179.79 481.31,-190.23 487.43,-186.82"/>
</g>
<!-- ObjectCacher -->
<g id="node10" class="node">
<title>ObjectCacher</title>
<ellipse fill="#b2dfee" stroke="#b2dfee" cx="509.15" cy="-378" rx="73.39" ry="18"/>
<text text-anchor="middle" x="509.15" y="-374.3" font-family="Serif" font-size="14.00">ObjectCacher</text>
</g>
<!-- Filer -->
<g id="node11" class="node">
<title>Filer</title>
<ellipse fill="#b2dfee" stroke="#b2dfee" cx="509.15" cy="-306" rx="32.49" ry="18"/>
<text text-anchor="middle" x="509.15" y="-302.3" font-family="Serif" font-size="14.00">Filer</text>
</g>
<!-- ObjectCacher&#45;&gt;Filer -->
<g id="edge9" class="edge">
<title>ObjectCacher&#45;&gt;Filer</title>
<path fill="none" stroke="black" d="M509.15,-359.7C509.15,-351.98 509.15,-342.71 509.15,-334.11"/>
<polygon fill="black" stroke="black" points="512.65,-334.1 509.15,-324.1 505.65,-334.1 512.65,-334.1"/>
</g>
<!-- Filer&#45;&gt;objecter -->
<g id="edge14" class="edge">
<title>Filer&#45;&gt;objecter</title>
<path fill="none" stroke="black" d="M509.15,-287.7C509.15,-279.98 509.15,-270.71 509.15,-262.11"/>
<polygon fill="black" stroke="black" points="512.65,-262.1 509.15,-252.1 505.65,-262.1 512.65,-262.1"/>
</g>
<!-- dumpjournal -->
<g id="node12" class="node">
<title>dumpjournal</title>
<ellipse fill="#b2dfee" stroke="#b2dfee" cx="642.15" cy="-450" rx="69.59" ry="18"/>
<text text-anchor="middle" x="642.15" y="-446.3" font-family="Serif" font-size="14.00">dumpjournal</text>
</g>
<!-- Journaler -->
<g id="node13" class="node">
<title>Journaler</title>
<ellipse fill="#b2dfee" stroke="#b2dfee" cx="654.15" cy="-378" rx="53.89" ry="18"/>
<text text-anchor="middle" x="654.15" y="-374.3" font-family="Serif" font-size="14.00">Journaler</text>
</g>
<!-- dumpjournal&#45;&gt;Journaler -->
<g id="edge10" class="edge">
<title>dumpjournal&#45;&gt;Journaler</title>
<path fill="none" stroke="black" d="M645.11,-431.7C646.44,-423.98 648.02,-414.71 649.5,-406.11"/>
<polygon fill="black" stroke="black" points="652.97,-406.55 651.21,-396.1 646.08,-405.37 652.97,-406.55"/>
</g>
<!-- Journaler&#45;&gt;Filer -->
<g id="edge11" class="edge">
<title>Journaler&#45;&gt;Filer</title>
<path fill="none" stroke="black" d="M624.8,-362.83C600.88,-351.29 567.11,-334.98 542.23,-322.97"/>
<polygon fill="black" stroke="black" points="543.69,-319.79 533.17,-318.6 540.65,-326.1 543.69,-319.79"/>
</g>
<!-- SyntheticClient -->
<g id="node14" class="node">
<title>SyntheticClient</title>
<ellipse fill="#b2dfee" stroke="#b2dfee" cx="334.15" cy="-378" rx="83.39" ry="18"/>
<text text-anchor="middle" x="334.15" y="-374.3" font-family="Serif" font-size="14.00">SyntheticClient</text>
</g>
<!-- SyntheticClient&#45;&gt;objecter -->
<g id="edge13" class="edge">
<title>SyntheticClient&#45;&gt;objecter</title>
<path fill="none" stroke="black" d="M354.56,-360.43C386.12,-334.83 446.75,-285.63 481.97,-257.05"/>
<polygon fill="black" stroke="black" points="484.37,-259.61 489.93,-250.6 479.96,-254.18 484.37,-259.61"/>
</g>
<!-- SyntheticClient&#45;&gt;Filer -->
<g id="edge12" class="edge">
<title>SyntheticClient&#45;&gt;Filer</title>
<path fill="none" stroke="black" d="M372.12,-361.81C402.47,-349.67 444.66,-332.79 474.19,-320.98"/>
<polygon fill="black" stroke="black" points="475.69,-324.15 483.68,-317.19 473.09,-317.65 475.69,-324.15"/>
</g>
<!-- CrushWrapper -->
<g id="node20" class="node">
<title>CrushWrapper</title>
<ellipse fill="#b2dfee" stroke="#b2dfee" cx="532.15" cy="-90" rx="78.79" ry="18"/>
<text text-anchor="middle" x="532.15" y="-86.3" font-family="Serif" font-size="14.00">CrushWrapper</text>
</g>
<!-- OSDMap&#45;&gt;CrushWrapper -->
<g id="edge19" class="edge">
<title>OSDMap&#45;&gt;CrushWrapper</title>
<path fill="none" stroke="black" d="M484.84,-144.41C492.45,-135.82 501.89,-125.16 510.33,-115.63"/>
<polygon fill="black" stroke="black" points="513.12,-117.76 517.13,-107.96 507.88,-113.12 513.12,-117.76"/>
</g>
<!-- ceph&#45;osd -->
<g id="node16" class="node">
<title>ceph&#45;osd</title>
<ellipse fill="#b2dfee" stroke="#b2dfee" cx="181.15" cy="-378" rx="51.99" ry="18"/>
<text text-anchor="middle" x="181.15" y="-374.3" font-family="Serif" font-size="14.00">ceph&#45;osd</text>
</g>
<!-- PG -->
<g id="node17" class="node">
<title>PG</title>
<ellipse fill="#b2dfee" stroke="#b2dfee" cx="291.15" cy="-306" rx="27" ry="18"/>
<text text-anchor="middle" x="291.15" y="-302.3" font-family="Serif" font-size="14.00">PG</text>
</g>
<!-- ceph&#45;osd&#45;&gt;PG -->
<g id="edge16" class="edge">
<title>ceph&#45;osd&#45;&gt;PG</title>
<path fill="none" stroke="black" d="M205.02,-361.81C222.13,-350.92 245.23,-336.22 263.2,-324.78"/>
<polygon fill="black" stroke="black" points="265.52,-327.46 272.07,-319.14 261.76,-321.55 265.52,-327.46"/>
</g>
<!-- ObjectStore -->
<g id="node18" class="node">
<title>ObjectStore</title>
<ellipse fill="#b2dfee" stroke="#b2dfee" cx="218.15" cy="-162" rx="66.09" ry="18"/>
<text text-anchor="middle" x="218.15" y="-158.3" font-family="Serif" font-size="14.00">ObjectStore</text>
</g>
<!-- ceph&#45;osd&#45;&gt;ObjectStore -->
<g id="edge17" class="edge">
<title>ceph&#45;osd&#45;&gt;ObjectStore</title>
<path fill="none" stroke="black" d="M184.11,-359.85C190.53,-322.75 205.73,-234.81 213.46,-190.1"/>
<polygon fill="black" stroke="black" points="216.91,-190.68 215.17,-180.23 210.02,-189.49 216.91,-190.68"/>
</g>
<!-- PG&#45;&gt;OSDMap -->
<g id="edge23" class="edge">
<title>PG&#45;&gt;OSDMap</title>
<path fill="none" stroke="black" d="M316.41,-298.76C342.87,-291.22 384.49,-276.41 413.15,-252 433.34,-234.8 448.91,-208.64 458.63,-189.13"/>
<polygon fill="black" stroke="black" points="461.89,-190.42 463.05,-179.88 455.58,-187.39 461.89,-190.42"/>
</g>
<!-- PG&#45;&gt;ObjectStore -->
<g id="edge22" class="edge">
<title>PG&#45;&gt;ObjectStore</title>
<path fill="none" stroke="black" d="M273.39,-292.14C261.32,-282.46 246,-268.12 237.15,-252 226.65,-232.9 221.95,-208.55 219.85,-190.14"/>
<polygon fill="black" stroke="black" points="223.32,-189.7 218.88,-180.08 216.35,-190.37 223.32,-189.7"/>
</g>
<!-- PrimaryLogPG -->
<g id="node22" class="node">
<title>PrimaryLogPG</title>
<ellipse fill="#b2dfee" stroke="#b2dfee" cx="325.15" cy="-234" rx="79.09" ry="18"/>
<text text-anchor="middle" x="325.15" y="-230.3" font-family="Serif" font-size="14.00">PrimaryLogPG</text>
</g>
<!-- PG&#45;&gt;PrimaryLogPG -->
<g id="edge21" class="edge">
<title>PG&#45;&gt;PrimaryLogPG</title>
<path fill="none" stroke="black" d="M299.03,-288.76C302.99,-280.61 307.89,-270.53 312.37,-261.31"/>
<polygon fill="black" stroke="black" points="315.61,-262.65 316.83,-252.12 309.31,-259.59 315.61,-262.65"/>
</g>
<!-- FileStore -->
<g id="node23" class="node">
<title>FileStore</title>
<ellipse fill="#b2dfee" stroke="#b2dfee" cx="134.15" cy="-90" rx="53.89" ry="18"/>
<text text-anchor="middle" x="134.15" y="-86.3" font-family="Serif" font-size="14.00">FileStore</text>
</g>
<!-- ObjectStore&#45;&gt;FileStore -->
<g id="edge26" class="edge">
<title>ObjectStore&#45;&gt;FileStore</title>
<path fill="none" stroke="black" d="M198.66,-144.76C187.45,-135.42 173.2,-123.55 160.95,-113.33"/>
<polygon fill="black" stroke="black" points="163.16,-110.62 153.23,-106.91 158.68,-116 163.16,-110.62"/>
</g>
<!-- BlueStore -->
<g id="node24" class="node">
<title>BlueStore</title>
<ellipse fill="#b2dfee" stroke="#b2dfee" cx="273.15" cy="-90" rx="57.39" ry="18"/>
<text text-anchor="middle" x="273.15" y="-86.3" font-family="Serif" font-size="14.00">BlueStore</text>
</g>
<!-- ObjectStore&#45;&gt;BlueStore -->
<g id="edge27" class="edge">
<title>ObjectStore&#45;&gt;BlueStore</title>
<path fill="none" stroke="black" d="M231.46,-144.05C238.15,-135.54 246.38,-125.07 253.75,-115.68"/>
<polygon fill="black" stroke="black" points="256.53,-117.81 259.96,-107.79 251.03,-113.49 256.53,-117.81"/>
</g>
<!-- crushtool -->
<g id="node19" class="node">
<title>crushtool</title>
<ellipse fill="#b2dfee" stroke="#b2dfee" cx="594.15" cy="-162" rx="53.89" ry="18"/>
<text text-anchor="middle" x="594.15" y="-158.3" font-family="Serif" font-size="14.00">crushtool</text>
</g>
<!-- crushtool&#45;&gt;CrushWrapper -->
<g id="edge18" class="edge">
<title>crushtool&#45;&gt;CrushWrapper</title>
<path fill="none" stroke="black" d="M579.45,-144.41C571.84,-135.82 562.4,-125.16 553.96,-115.63"/>
<polygon fill="black" stroke="black" points="556.42,-113.12 547.17,-107.96 551.18,-117.76 556.42,-113.12"/>
</g>
<!-- OSDMapTool -->
<g id="node21" class="node">
<title>OSDMapTool</title>
<ellipse fill="#b2dfee" stroke="#b2dfee" cx="647.15" cy="-234" rx="71.49" ry="18"/>
<text text-anchor="middle" x="647.15" y="-230.3" font-family="Serif" font-size="14.00">OSDMapTool</text>
</g>
<!-- OSDMapTool&#45;&gt;OSDMap -->
<g id="edge20" class="edge">
<title>OSDMapTool&#45;&gt;OSDMap</title>
<path fill="none" stroke="black" d="M610.47,-218.5C581.97,-207.22 542.38,-191.57 512.52,-179.76"/>
<polygon fill="black" stroke="black" points="513.78,-176.49 503.19,-176.07 511.2,-183 513.78,-176.49"/>
</g>
<!-- PrimaryLogPG&#45;&gt;OSDMap -->
<g id="edge25" class="edge">
<title>PrimaryLogPG&#45;&gt;OSDMap</title>
<path fill="none" stroke="black" d="M357.33,-217.46C379.33,-206.84 408.59,-192.72 431.8,-181.51"/>
<polygon fill="black" stroke="black" points="433.53,-184.57 441.01,-177.07 430.48,-178.26 433.53,-184.57"/>
</g>
<!-- PrimaryLogPG&#45;&gt;ObjectStore -->
<g id="edge24" class="edge">
<title>PrimaryLogPG&#45;&gt;ObjectStore</title>
<path fill="none" stroke="black" d="M300.33,-216.76C285.64,-207.15 266.86,-194.87 250.95,-184.46"/>
<polygon fill="black" stroke="black" points="252.74,-181.45 242.46,-178.91 248.91,-187.31 252.74,-181.45"/>
</g>
<!-- xfs -->
<g id="node26" class="node">
<title>xfs</title>
<ellipse fill="#b2dfee" stroke="#b2dfee" cx="191.15" cy="-18" rx="27" ry="18"/>
<text text-anchor="middle" x="191.15" y="-14.3" font-family="Serif" font-size="14.00">xfs</text>
</g>
<!-- FileStore&#45;&gt;xfs -->
<g id="edge29" class="edge">
<title>FileStore&#45;&gt;xfs</title>
<path fill="none" stroke="black" d="M147.66,-72.41C154.96,-63.44 164.1,-52.21 172.11,-42.37"/>
<polygon fill="black" stroke="black" points="174.92,-44.48 178.52,-34.51 169.49,-40.06 174.92,-44.48"/>
</g>
<!-- btrfs -->
<g id="node27" class="node">
<title>btrfs</title>
<ellipse fill="#b2dfee" stroke="#b2dfee" cx="33.15" cy="-18" rx="33.29" ry="18"/>
<text text-anchor="middle" x="33.15" y="-14.3" font-family="Serif" font-size="14.00">btrfs</text>
</g>
<!-- FileStore&#45;&gt;btrfs -->
<g id="edge30" class="edge">
<title>FileStore&#45;&gt;btrfs</title>
<path fill="none" stroke="black" d="M111.73,-73.46C96.83,-63.13 77.13,-49.48 61.19,-38.43"/>
<polygon fill="black" stroke="black" points="62.98,-35.42 52.77,-32.6 59,-41.17 62.98,-35.42"/>
</g>
<!-- ext4 -->
<g id="node28" class="node">
<title>ext4</title>
<ellipse fill="#b2dfee" stroke="#b2dfee" cx="115.15" cy="-18" rx="31.4" ry="18"/>
<text text-anchor="middle" x="115.15" y="-14.3" font-family="Serif" font-size="14.00">ext4</text>
</g>
<!-- FileStore&#45;&gt;ext4 -->
<g id="edge31" class="edge">
<title>FileStore&#45;&gt;ext4</title>
<path fill="none" stroke="black" d="M129.55,-72.05C127.43,-64.26 124.87,-54.82 122.5,-46.08"/>
<polygon fill="black" stroke="black" points="125.83,-45.01 119.84,-36.28 119.08,-46.84 125.83,-45.01"/>
</g>
<!-- rocksdb -->
<g id="node25" class="node">
<title>rocksdb</title>
<ellipse fill="#b2dfee" stroke="#b2dfee" cx="283.15" cy="-18" rx="47.39" ry="18"/>
<text text-anchor="middle" x="283.15" y="-14.3" font-family="Serif" font-size="14.00">rocksdb</text>
</g>
<!-- BlueStore&#45;&gt;rocksdb -->
<g id="edge28" class="edge">
<title>BlueStore&#45;&gt;rocksdb</title>
<path fill="none" stroke="black" d="M275.62,-71.7C276.72,-63.98 278.05,-54.71 279.27,-46.11"/>
<polygon fill="black" stroke="black" points="282.75,-46.5 280.7,-36.1 275.82,-45.51 282.75,-46.5"/>
</g>
</g>
</svg>
